<?xml version="1.0" encoding="utf-8"?>
<svg viewBox="0 0 143.87 119.87" xmlns="http://www.w3.org/2000/svg">
  <defs>
    <clipPath id="clippath0" transform="">
      <path d="M 0 155.906 L 255.118 155.906 L 255.118 0 L 0 0 Z" style="fill: none; clip-rule: nonzero;"/>
    </clipPath>
  </defs>
  <g transform="matrix(1.606265, 0, 0, -1.606265, -22.422869, 141.03302)" style="">
    <g style="clip-path: url(#clippath0);">
      <g transform="matrix(1.213416, 0, 0, 1.213416, -7.753301, -97.546616)" style=""/>
      <g transform="matrix(1.43184, 0, 0, 1.43184, 48.951485, 49.871605)" style="">
        <path d="M 0 0 C 0 0.001 0 0.002 0 0.003 C -0.02 0.002 -0.039 0 -0.059 0 Z" style="fill: rgb(53, 179, 197); fill-opacity: 1;"/>
      </g>
      <g transform="matrix(1.43184, 0, 0, 1.43184, 50.204624, 60.603245)" style="">
        <path d="M 0 0 C 0.01 0.029 0.019 0.059 0.03 0.088 L -0.196 0.088 C -0.129 0.062 -0.063 0.033 0 0" style="fill: rgb(53, 179, 197); fill-opacity: 1;"/>
      </g>
      <g transform="matrix(1.43184, 0, 0, 1.43184, 52.934006, 38.830971)" style="">
        <path d="M 0 0 L -2.859 0 C -3.924 0 -4.787 0.863 -4.787 1.928 C -4.787 2.99 -3.924 3.854 -2.859 3.854 L -0.809 3.854 C -0.518 3.854 -0.243 3.917 0.006 4.039 L 0.106 3.511 L 0.253 2.597 L 0.617 1.426 L 0.799 0.879 L 1.167 0.112 L 1.228 -0.003 L 0.003 -0.003 C 0.003 -0.003 0 -0.003 0 0" style="fill: rgb(190, 38, 30); fill-opacity: 1;"/>
      </g>
      <g transform="matrix(1.43184, 0, 0, 1.43184, 98.009201, 52.453346)" style="">
        <path d="M 0 0 C 0 -9.488 -7.691 -17.179 -17.179 -17.179 C -17.224 -17.179 -17.269 -17.176 -17.314 -17.176 C -17.454 -17.208 -17.601 -17.227 -17.752 -17.227 L -29.709 -17.227 C -30.774 -17.227 -31.637 -16.364 -31.637 -15.299 C -31.637 -14.26 -30.812 -13.412 -29.779 -13.374 C -29.757 -13.374 -29.734 -13.371 -29.709 -13.371 L -25.846 -13.371 L -25.197 -13.604 L -23.917 -14.007 L -22.565 -14.301 L -20.7 -14.557 L -19.862 -14.592 L -19.239 -14.627 L -17.998 -14.557 L -17.083 -14.483 L -16.537 -14.372 L -15.695 -14.228 L -15.184 -14.081 L -14.343 -13.825 L -13.831 -13.604 L -13.064 -13.239 L -12.587 -12.948 L -11.893 -12.51 L -11.455 -12.181 L -10.835 -11.631 L -10.432 -11.228 L -9.885 -10.646 L -9.517 -10.169 L -8.97 -9.475 L -8.641 -8.925 L -8.35 -8.379 L -8.094 -7.832 L -7.838 -7.064 L -7.656 -6.553 L -7.435 -5.712 L -7.326 -5.161 L -7.215 -4.25 L -7.141 -3.006 L -7.141 -2.386 L -7.215 -0.521 L -7.179 0.064 L -6.997 1.928 L -6.959 2.514 L -6.997 4.378 L -7.032 4.96 L -7.141 6.824 L -7.141 7.41 L -7.032 9.239 L -6.997 9.824 L -7.032 10.662 L -7.071 11.212 L -7.106 11.724 L -7.141 12.127 L -7.288 12.344 L -7.656 12.453 L -8.203 12.453 L -9.885 12.382 L -13.246 12.382 L -15.401 12.453 L -15.987 12.418 L -18.18 12.235 L -18.766 12.235 L -20.227 12.309 L -20.994 12.309 L -21.433 12.162 L -21.653 11.759 L -21.688 11.212 L -21.58 9.495 L -21.58 8.909 L -21.688 7.374 L -21.653 6.824 L -21.653 6.607 L -21.433 6.169 L -20.994 5.983 L -20.483 5.983 L -19.312 6.095 L -18.727 6.095 L -17.083 5.983 L -16.498 5.983 L -14.816 6.095 L -14.525 5.948 L -14.56 5.437 L -14.599 3.243 L -14.599 2.658 L -14.634 0.429 L -14.634 -0.157 L -14.672 -2.347 L -14.672 -2.897 L -14.707 -3.738 L -14.781 -4.285 L -14.963 -5.088 L -15.184 -5.638 L -15.513 -6.185 L -15.913 -6.626 L -16.61 -7.208 L -17.119 -7.502 L -17.633 -7.758 L -18.142 -7.94 L -19.239 -8.158 L -19.789 -8.196 L -20.665 -8.088 L -21.25 -7.94 L -21.797 -7.685 L -22.309 -7.355 L -23.006 -6.735 L -23.371 -6.258 L -23.626 -5.785 L -23.844 -5.273 L -24.1 -4.432 L -24.212 -3.921 L -24.247 -3.665 L -24.285 -3.188 L -24.467 -2.785 L -24.906 -2.568 L -25.491 -2.603 L -26.588 -2.715 L -27.17 -2.75 L -28.817 -2.677 L -30.46 -2.677 L -30.668 -2.693 C -31.01 -2.159 -31.608 -1.804 -32.29 -1.804 L -34.263 -1.804 L -34.263 -1.8 C -34.282 -1.8 -34.301 -1.804 -34.32 -1.804 L -46.277 -1.804 C -47.342 -1.804 -48.206 -0.94 -48.206 0.125 C -48.206 1.19 -47.342 2.053 -46.277 2.053 L -34.32 2.053 C -34.292 2.053 -34.26 2.05 -34.231 2.05 L -34.231 2.059 C -33.188 2.085 -32.354 2.936 -32.354 3.985 C -32.354 4.727 -32.773 5.369 -33.387 5.692 C -33.377 5.721 -33.367 5.75 -33.358 5.779 L -33.582 5.779 C -33.799 5.865 -34.033 5.913 -34.282 5.913 L -39.846 5.913 C -40.566 6.191 -41.074 6.888 -41.074 7.707 C -41.074 8.538 -40.55 9.242 -39.818 9.514 L -28.379 9.514 C -28.142 9.514 -27.918 9.559 -27.707 9.635 C -26.975 9.907 -26.45 10.614 -26.45 11.442 C -26.45 12.363 -27.093 13.131 -27.956 13.323 C -27.972 13.326 -27.988 13.329 -28.008 13.332 C -28.126 13.358 -28.251 13.371 -28.379 13.371 L -30.23 13.371 C -31.094 13.562 -31.736 14.33 -31.736 15.251 C -31.736 16.316 -30.873 17.179 -29.808 17.179 L -16.412 17.179 C -16.271 17.179 -16.137 17.163 -16.003 17.135 C -7.064 16.53 0 9.092 0 0" style="fill: rgb(190, 38, 30); fill-opacity: 1;"/>
      </g>
      <g transform="matrix(1.43184, 0, 0, 1.43184, 44.211945, 41.774261)" style="">
        <path d="M 0 0 C 0 1.065 -0.863 1.928 -1.928 1.928 L -10.818 1.928 C -11.882 1.928 -12.746 1.065 -12.746 0 C -12.746 -1.065 -11.882 -1.928 -10.818 -1.928 L -1.928 -1.928 C -0.863 -1.928 0 -1.065 0 0" style="fill: rgb(230, 200, 151); fill-opacity: 1;"/>
      </g>
      <g transform="matrix(1.43184, 0, 0, 1.43184, 47.757328, 33.308071)" style="">
        <path d="M 0 0 L -3.236 0 C -4.3 0 -5.164 -0.863 -5.164 -1.928 C -5.164 -2.993 -4.3 -3.856 -3.236 -3.856 L 0 -3.856 C 1.065 -3.856 1.928 -2.993 1.928 -1.928 C 1.928 -0.863 1.065 0 0 0" style="fill: rgb(230, 200, 151); fill-opacity: 1;"/>
      </g>
      <g transform="matrix(1.43184, 0, 0, 1.43184, 23.201839, 55.179569)" style="">
        <path d="M 0 0 L -3.236 0 C -4.3 0 -5.164 -0.863 -5.164 -1.928 C -5.164 -2.993 -4.3 -3.856 -3.236 -3.856 L 0 -3.856 C 1.065 -3.856 1.928 -2.993 1.928 -1.928 C 1.928 -0.863 1.065 0 0 0" style="fill: rgb(230, 200, 151); fill-opacity: 1;"/>
      </g>
      <g transform="matrix(1.43184, 0, 0, 1.43184, 36.92947, 71.597191)" style="">
        <path d="M 0 0 L 8.014 0 C 8.861 0.204 9.49 0.964 9.49 1.873 C 9.49 2.937 8.627 3.8 7.562 3.8 L 0.452 3.8 C -0.613 3.8 -1.476 2.937 -1.476 1.873 C -1.476 0.964 -0.846 0.204 0 0" style="fill: rgb(230, 200, 151); fill-opacity: 1;"/>
      </g>
      <g transform="matrix(1.43184, 0, 0, 1.43184, 30.803188, 60.729527)" style="">
        <path d="M 0 0 L 2.21 0 C 2.456 0 2.691 0.048 2.908 0.132 C 3.627 0.412 4.138 1.11 4.138 1.928 C 4.138 2.993 3.274 3.856 2.21 3.856 L -2.805 3.856 C -3.87 3.856 -4.733 2.993 -4.733 1.928 C -4.733 0.863 -3.87 0 -2.805 0 Z" style="fill: rgb(230, 200, 151); fill-opacity: 1;"/>
      </g>
      <g transform="matrix(1.43184, 0, 0, 1.43184, 101.138489, 52.418999)" style="">
        <path d="M 0 0 C 0 -8.114 -5.788 -14.875 -13.463 -16.379 C -6.52 -14.171 -1.488 -7.677 -1.488 0 C -1.488 7.681 -6.531 14.184 -13.487 16.379 C -5.803 14.884 0 8.12 0 0" style="fill: rgb(230, 200, 151); fill-opacity: 1;"/>
      </g>
    </g>
  </g>
</svg>